<svg width="93" height="93" viewBox="0 0 93 93" fill="none" xmlns="http://www.w3.org/2000/svg">
<circle cx="46.5" cy="46.5" r="46.5" fill="#B7682C"/>
<path d="M53.0846 65.3789V64.981C53.0846 57.9094 60.8875 53.5857 60.5574 45.2851C60.3225 38.1531 54.6116 32.2437 47.5102 31.8012C47.2118 31.7821 46.9134 31.7725 46.6213 31.7725C46.3293 31.7725 46.0309 31.7821 45.7325 31.8012C38.6311 32.2437 32.9202 38.1531 32.6853 45.2851C32.3552 53.5857 40.1581 57.9094 40.1581 64.981V68.1617C40.1581 71.7245 43.0373 74.6124 46.5896 74.6124H46.6467C50.1927 74.6124 53.0688 71.7373 53.0783 68.1808L53.0878 65.3789H53.0846Z" stroke="white" stroke-width="2.5" stroke-miterlimit="10" stroke-linejoin="round"/>
<path d="M46.6182 26.5351V19.3553" stroke="white" stroke-width="2.5" stroke-miterlimit="10" stroke-linejoin="round"/>
<path d="M35.5456 29.5023L33.1648 26.0063" stroke="white" stroke-width="2.5" stroke-miterlimit="10" stroke-linejoin="round"/>
<path d="M27.8919 38.427L22 35.9913" stroke="white" stroke-width="2.5" stroke-miterlimit="10" stroke-linejoin="round"/>
<path d="M65.3447 38.427L71.2397 35.9913" stroke="white" stroke-width="2.5" stroke-miterlimit="10" stroke-linejoin="round"/>
<path d="M27.568 50.1631L23.3459 51.1311" stroke="white" stroke-width="2.5" stroke-miterlimit="10" stroke-linejoin="round"/>
<path d="M33.1647 60.3516L28.2252 65.3408" stroke="white" stroke-width="2.5" stroke-miterlimit="10" stroke-linejoin="round"/>
<path d="M57.6941 29.5023L60.0718 26.0063" stroke="white" stroke-width="2.5" stroke-miterlimit="10" stroke-linejoin="round"/>
<path d="M65.6684 50.1631L69.8937 51.1311" stroke="white" stroke-width="2.5" stroke-miterlimit="10" stroke-linejoin="round"/>
<path d="M60.0716 60.3516L65.0111 65.3408" stroke="white" stroke-width="2.5" stroke-miterlimit="10" stroke-linejoin="round"/>
<path d="M53.0846 65.379H40.1548" stroke="white" stroke-width="2.5" stroke-miterlimit="10" stroke-linejoin="round"/>
<path d="M42.4343 51.9205C42.4343 53.8532 44.3073 55.4165 46.6183 55.4165C48.9293 55.4165 50.8023 53.85 50.8023 51.9205C50.8023 47.6286 42.4312 47.0587 42.4312 42.6839C42.4312 40.7545 44.3041 39.188 46.6151 39.188C48.9262 39.188 50.7991 40.7545 50.7991 42.6839" stroke="white" stroke-width="2.5" stroke-miterlimit="10" stroke-linejoin="round"/>
<path d="M46.6183 55.4164V58.6131" stroke="white" stroke-width="2.5" stroke-miterlimit="10" stroke-linejoin="round"/>
<path d="M46.6183 35.9913V39.188" stroke="white" stroke-width="2.5" stroke-miterlimit="10" stroke-linejoin="round"/>
<path d="M46.6183 41.5092V44.6804" stroke="white" stroke-width="2.5" stroke-miterlimit="10" stroke-linejoin="round"/>
<path d="M46.6183 49.9241V53.0953" stroke="white" stroke-width="2.5" stroke-miterlimit="10" stroke-linejoin="round"/>
</svg>
