<svg width="93" height="93" viewBox="0 0 93 93" fill="none" xmlns="http://www.w3.org/2000/svg">
<circle cx="46.5" cy="46.5" r="46.5" fill="#8C8C8C"/>
<path d="M46.5 54C37.9653 54 30.3755 57.8266 25.5434 63.7649C24.5034 65.043 23.9834 65.682 24.0004 66.5457C24.0135 67.213 24.4648 68.0547 25.0302 68.4667C25.762 69 26.7761 69 28.8044 69H64.1956C66.2239 69 67.238 69 67.9698 68.4667C68.5352 68.0547 68.9865 67.213 68.9996 66.5457C69.0166 65.682 68.4966 65.043 67.4566 63.7649C62.6245 57.8266 55.0347 54 46.5 54Z" stroke="white" stroke-width="2.5" stroke-linecap="round" stroke-linejoin="round"/>
<path d="M46.5 46.5C53.191 46.5 58.6152 41.4632 58.6152 35.25C58.6152 29.0368 53.191 24 46.5 24C39.809 24 34.3848 29.0368 34.3848 35.25C34.3848 41.4632 39.809 46.5 46.5 46.5Z" stroke="white" stroke-width="2.5" stroke-linecap="round" stroke-linejoin="round"/>
</svg>
