<svg width="17" height="18" viewBox="0 0 17 18" fill="none" xmlns="http://www.w3.org/2000/svg">
<path d="M8.35727 11.7439C5.1872 11.7439 2.36807 13.1671 0.573267 15.3757C0.186977 15.851 -0.00616769 16.0887 0.000150108 16.4099C0.00503119 16.6581 0.172633 16.9711 0.382639 17.1244C0.65446 17.3227 1.03114 17.3227 1.7845 17.3227H14.93C15.6834 17.3227 16.0601 17.3227 16.3319 17.1244C16.5419 16.9711 16.7095 16.6581 16.7144 16.4099C16.7207 16.0887 16.5276 15.851 16.1413 15.3757C14.3465 13.1671 11.5273 11.7439 8.35727 11.7439Z" fill="#F8EBD0"/>
<path d="M8.35727 8.95457C10.8426 8.95457 12.8573 7.08129 12.8573 4.7705C12.8573 2.4597 10.8426 0.586426 8.35727 0.586426C5.87199 0.586426 3.85727 2.4597 3.85727 4.7705C3.85727 7.08129 5.87199 8.95457 8.35727 8.95457Z" fill="#F8EBD0"/>
</svg>
