<svg width="93" height="93" viewBox="0 0 93 93" fill="none" xmlns="http://www.w3.org/2000/svg">
<circle cx="46.5" cy="46.5" r="46.5" fill="#D39D28"/>
<path d="M35.2241 23.1748L38.9533 29.8699H52.2453L55.9605 23.1927C56.3106 22.5629 56.041 21.7649 55.3862 21.4823C53.807 20.7988 50.603 19.7825 45.4907 19.7825C40.3784 19.7825 37.3075 20.7845 35.7843 21.4679C35.14 21.7578 34.8774 22.5486 35.2276 23.1712L35.2241 23.1748Z" fill="#D39D28" stroke="white" stroke-width="2.5" stroke-miterlimit="10" stroke-linejoin="round"/>
<path d="M53.2059 29.8699C60.2216 35.4457 66.135 50.2333 66.135 58.3896C66.135 69.4349 57.1619 73.2458 46.0941 73.2458C35.0263 73.2458 26.0532 69.4384 26.0532 58.3896C26.0532 50.2333 32.2413 35.3943 39.257 29.8699" fill="#D39D28"/>
<path d="M53.2059 29.8699C60.2216 35.4457 66.135 50.2333 66.135 58.3896C66.135 69.4349 57.1619 73.2458 46.0941 73.2458C35.0263 73.2458 26.0532 69.4384 26.0532 58.3896C26.0532 50.2333 32.2413 35.3943 39.257 29.8699" stroke="white" stroke-width="2.5" stroke-miterlimit="10"/>
<path d="M40.1166 57.9458C40.1166 60.7934 42.8704 63.1031 46.2681 63.1031C49.6659 63.1031 52.4197 60.7934 52.4197 57.9458C52.4197 51.6198 40.12 50.7752 40.12 44.3217C40.12 41.4741 42.8738 39.1644 46.2716 39.1644C49.6693 39.1644 52.4231 41.4741 52.4231 44.3217" fill="#D39D28"/>
<path d="M40.1166 57.9458C40.1166 60.7934 42.8704 63.1031 46.2681 63.1031C49.6659 63.1031 52.4197 60.7934 52.4197 57.9458C52.4197 51.6198 40.12 50.7752 40.12 44.3217C40.12 41.4741 42.8738 39.1644 46.2716 39.1644C49.6693 39.1644 52.4231 41.4741 52.4231 44.3217" stroke="white" stroke-width="2.5" stroke-miterlimit="10"/>
<path d="M46.2682 63.1032V67.8158" stroke="white" stroke-width="2.5" stroke-miterlimit="10"/>
<path d="M46.2682 34.4517V39.1643" stroke="white" stroke-width="2.5" stroke-miterlimit="10"/>
<path d="M46.2682 42.5878V47.266" stroke="white" stroke-width="2.5" stroke-miterlimit="10"/>
<path d="M46.2682 55.0018V59.68" stroke="white" stroke-width="2.5" stroke-miterlimit="10"/>
</svg>
