<svg width="93" height="93" viewBox="0 0 93 93" fill="none" xmlns="http://www.w3.org/2000/svg">
<circle cx="46.5" cy="46.5" r="46.5" fill="#D4582C"/>
<path d="M24.5392 54.1653C24.9423 58.7025 26.9546 63.9857 28.9389 68.1887C29.7241 69.853 31.7154 70.6429 33.4858 69.9914C35.4209 69.2791 36.3359 67.1388 35.4665 65.3259C33.8188 61.8825 32.1501 57.7572 31.6558 54.2497" stroke="white" stroke-width="2.5" stroke-miterlimit="10"/>
<path d="M17.038 45.6247C17.038 50.2987 20.6986 54.0959 25.2292 54.1201L33.3535 54.165C36.4519 54.1926 39.5337 54.7208 42.4648 55.7564C48.7554 57.976 54.6144 61.1691 60.0719 65.2563C60.9251 65.8949 62.0628 65.1907 62.0628 64.0239V27.3084C62.0628 26.1416 60.9284 25.4374 60.0719 26.076C54.6412 30.139 48.819 33.3218 42.5652 35.5379C39.5571 36.6046 36.395 37.1293 33.2129 37.1293H25.2694C20.722 37.1293 17.0347 40.9334 17.0347 45.6247H17.038Z" stroke="white" stroke-width="2.5" stroke-miterlimit="10"/>
<path d="M63.0009 40.0002C66.1091 40.0002 68.6294 42.5375 68.6294 45.6664C68.6294 48.7953 66.1091 51.3325 63.0009 51.3325" stroke="white" stroke-width="2.5" stroke-miterlimit="10"/>
<path d="M38.6109 37.1671V54.1655" stroke="white" stroke-width="2.5" stroke-miterlimit="10"/>
<path d="M74.2581 45.6663H78.9485" stroke="white" stroke-width="2.5" stroke-miterlimit="10"/>
<path d="M72.3817 39.0558L76.1341 37.1671" stroke="white" stroke-width="2.5" stroke-miterlimit="10"/>
<path d="M67.6913 35.2785L69.5675 31.501" stroke="white" stroke-width="2.5" stroke-miterlimit="10"/>
<path d="M72.3817 51.3323L76.1341 53.221" stroke="white" stroke-width="2.5" stroke-miterlimit="10"/>
<path d="M67.6913 56.0541L69.5675 58.8871" stroke="white" stroke-width="2.5" stroke-miterlimit="10"/>
</svg>
