<svg width="188" height="43" viewBox="0 0 188 43" fill="none" xmlns="http://www.w3.org/2000/svg">
<path d="M27.8347 9.73428L21.4218 15.7264C20.8594 16.2755 20.793 17.0196 20.793 17.8743V25.0533C20.793 26.4085 21.1916 27.0329 21.754 27.5821L27.8347 33.1933C28.406 33.7248 29.057 33.9816 29.8807 34.0303H41.3423C42.2812 34.0348 42.8082 33.5963 43.291 33.1977L46.4531 30.1951H34.9251C33.9685 30.1773 33.3352 29.8452 32.5778 29.0923L31.2669 27.8345C30.6248 27.2677 30.4122 26.4173 30.4122 24.482L30.4255 17.6484C30.483 16.2711 30.6248 15.7219 31.5459 14.9115L32.6531 13.8663C33.499 13.0736 33.9862 12.7325 34.9206 12.7281H46.4487L43.1448 9.67671C42.5337 9.12312 41.7808 8.89282 40.8552 8.89282H29.8763C29.0836 8.89725 28.4193 9.14526 27.8347 9.73428Z" fill="#F8EBD0"/>
<path d="M21.9577 5.03998L10.6467 15.6512C10.0532 16.1694 9.70337 16.9754 9.70337 17.839V25.0712C9.70337 25.9348 10.0532 26.7408 10.6467 27.259L22.2057 37.8614C22.901 38.4415 23.6052 38.6807 24.4112 38.7161L36.2979 38.7338C36.9844 38.7338 37.5601 38.5168 38.065 38.0651L41.0588 35.3104L28.5255 35.3016C27.5202 35.2927 26.7363 34.9783 26.01 34.2829L18.7291 27.5646C18.304 27.1527 17.9763 26.5548 17.9763 25.1243V17.7859C17.9763 17.0596 17.9807 16.103 18.738 15.3899L26.01 8.62726C26.6832 7.97623 27.5866 7.60865 28.5255 7.60865H41.0677L38.1447 4.89826C37.4096 4.27381 36.6478 4.19409 35.9614 4.19409H24.1101C23.0914 4.19409 22.4891 4.52182 21.9577 5.03998Z" fill="#F8EBD0"/>
<path d="M19.2473 0.0265726C18.8487 0.0265726 18.2375 0.137291 17.8921 0.283439C17.5467 0.429588 17.2367 0.642168 16.9709 0.899034L8.95934 8.33489L0.943322 15.7707C0.659882 16.0453 0.425159 16.3819 0.261296 16.7539C0.0974323 17.1259 0 17.5378 0 17.9674V21.4838V25.0002C0 25.4298 0.0974323 25.8417 0.261296 26.2137C0.425159 26.5857 0.664311 26.9179 0.943322 27.1969L8.95934 34.6327L16.9754 42.0686C17.3119 42.3609 17.5511 42.5425 17.8965 42.6886C18.242 42.8348 18.7646 42.9189 19.1632 42.9189L24.5441 42.9233L30.0711 42.9278C30.4166 42.9278 31.8825 42.9145 32.2058 42.9145C32.5424 42.9145 33.1314 42.7418 33.6363 42.2945L34.8542 41.1518L36.0942 40.0092H28.7868H23.8709C23.4015 40.0092 22.343 39.9827 21.9267 39.8232C21.7141 39.7435 21.3111 39.6638 20.6911 39.0836L14.1941 33.127L8.01159 27.281C7.70158 27.0065 7.46243 26.6433 7.29856 26.2536C7.1347 25.8638 7.04612 25.4564 7.04612 25.0932V21.4838V17.8744C7.04612 17.5112 7.1347 17.0994 7.29856 16.7141C7.46243 16.3243 7.70158 15.9612 8.01159 15.6866L14.1941 9.84066L20.5051 3.98144C20.9081 3.57842 21.351 3.33041 21.7673 3.17541C22.1836 3.01597 22.715 2.96283 23.1845 2.96283H28.7824H35.9614L34.7435 1.82021L33.5034 0.677597C33.251 0.478304 33.0295 0.318869 32.724 0.208151C32.4184 0.0974324 31.8869 0 30.0667 0L19.2473 0.0265726Z" fill="#F8EBD0"/>
<path d="M61.7456 6.74482L61.6171 8.46317C61.3425 8.32145 60.9572 8.18859 60.4524 8.07344C59.9475 7.95386 59.5002 7.89629 59.1104 7.89629C58.4816 7.89629 57.9014 8.02915 57.3788 8.2993C56.8562 8.56946 56.4576 8.95919 56.1875 9.46849C55.9173 9.98223 55.78 10.5668 55.78 11.2223C55.78 11.8866 55.9173 12.4756 56.1963 12.9849C56.4753 13.4942 56.8739 13.8751 57.3921 14.1231C57.9147 14.3711 58.4506 14.4951 59.0042 14.4951C59.1769 14.4951 59.385 14.4774 59.6242 14.4464C59.8633 14.411 60.0449 14.3755 60.1645 14.3357V12.0106H58.145V10.4827H61.9936V15.5713C61.4931 15.7352 60.9484 15.8636 60.3594 15.9522C59.7703 16.0407 59.2345 16.085 58.7473 16.085C58.052 16.085 57.3921 15.9876 56.7765 15.7927C56.1609 15.5979 55.6162 15.2879 55.1556 14.8583C54.6906 14.4287 54.3363 13.9017 54.0883 13.2772C53.8403 12.6528 53.7162 11.9663 53.7162 11.2178C53.7162 10.2745 53.9155 9.44192 54.3186 8.72003C54.7216 7.99815 55.346 7.42241 56.1875 6.99726C57.0334 6.5721 58.0077 6.35509 59.1193 6.35509C60.0759 6.35066 60.9528 6.48352 61.7456 6.74482Z" fill="#F8EBD0"/>
<path d="M66.8828 6.46606H69.5976C70.3815 6.46606 70.8997 6.47935 71.1521 6.50592C71.533 6.55021 71.8474 6.63436 72.0954 6.75393C72.3479 6.87351 72.5782 7.04623 72.7863 7.27209C72.9945 7.49353 73.1539 7.7504 73.2646 8.03827C73.3753 8.32613 73.4285 8.63172 73.4285 8.95944C73.4285 9.33146 73.3665 9.65476 73.2381 9.93377C73.1096 10.2128 72.959 10.4431 72.7819 10.6158C72.6047 10.7929 72.4187 10.9302 72.2239 11.0232C72.029 11.1207 71.781 11.1915 71.4843 11.2402C71.6526 11.2491 71.8253 11.3288 72.0024 11.4838C72.1752 11.6388 72.3302 11.8647 72.4586 12.1659L72.68 12.6752L74.0485 15.9967H71.905L70.8731 13.3085C70.7535 12.994 70.6605 12.7859 70.603 12.6796C70.5055 12.4936 70.4081 12.3519 70.3107 12.2633C70.2132 12.1747 70.1069 12.1127 69.9918 12.0773C69.8146 12.0286 69.5578 12.002 69.2256 12.002C69.1105 12.002 68.9732 12.0108 68.8182 12.0197V15.9967H66.8784V6.46606H66.8828ZM68.8226 7.95855V10.5494H69.6685C70.2797 10.5494 70.7314 10.4209 71.0148 10.1596C71.2983 9.89834 71.44 9.56618 71.44 9.15874C71.44 8.80887 71.3116 8.521 71.0591 8.29513C70.8067 8.06927 70.4302 7.95855 69.9342 7.95855H68.8226Z" fill="#F8EBD0"/>
<path d="M78.1717 6.46606H80.1115V12.0773C80.1115 12.5733 80.1469 12.9586 80.2178 13.2376C80.2886 13.5166 80.4082 13.7558 80.5721 13.9595C80.7359 14.1632 80.9308 14.3271 81.1478 14.4467C81.3648 14.5662 81.6704 14.6282 82.0601 14.6282C82.6979 14.6282 83.1939 14.4334 83.5437 14.0436C83.8936 13.6539 84.0663 12.9985 84.0663 12.0773V6.46606H85.9308V12.0773C85.9308 12.7859 85.8777 13.3483 85.7714 13.7735C85.6651 14.1986 85.519 14.5397 85.333 14.7965C85.147 15.0534 84.8989 15.2881 84.5978 15.4918C84.2966 15.7 83.9689 15.855 83.6146 15.9524C83.1142 16.0897 82.5783 16.1606 82.007 16.1606C81.4401 16.1606 80.9308 16.0986 80.4835 15.9701C80.0362 15.8417 79.6597 15.669 79.363 15.4431C79.0663 15.2217 78.836 14.9737 78.6677 14.7035C78.5038 14.4378 78.371 14.0702 78.2736 13.6096C78.2071 13.2952 78.1717 12.7327 78.1717 11.9134V6.46606Z" fill="#F8EBD0"/>
<path d="M90.8557 16.0011V6.46606H92.9549C93.7742 6.46606 94.3101 6.48378 94.5714 6.51478C95.032 6.57678 95.4172 6.68307 95.7228 6.82922C96.0284 6.97537 96.303 7.17909 96.5422 7.43596C96.7813 7.69283 96.9629 7.98512 97.0869 8.31728C97.2109 8.64943 97.2773 9.00816 97.2773 9.38903C97.2773 9.81862 97.202 10.2083 97.047 10.5626C96.8965 10.9169 96.6927 11.2225 96.4447 11.4794C96.1967 11.7363 95.9221 11.9311 95.621 12.064C95.3198 12.1969 94.9699 12.2943 94.5625 12.3563C94.3189 12.3917 93.9956 12.405 93.597 12.3961L92.7866 12.3829V16.0056H90.8557V16.0011ZM92.7954 7.92755V10.8992C92.9947 10.9037 93.132 10.9081 93.1985 10.9081C93.6679 10.9081 94.0266 10.8682 94.2702 10.7929C94.4208 10.7398 94.5758 10.6557 94.7352 10.5405C94.8947 10.4254 95.0231 10.2792 95.125 10.0932C95.2268 9.9072 95.2755 9.67247 95.2755 9.3846C95.2755 8.94616 95.1117 8.59186 94.7884 8.31728C94.4651 8.0427 93.9425 7.9054 93.2206 7.9054C93.1055 7.90098 92.9593 7.90983 92.7954 7.92755Z" fill="#F8EBD0"/>
<path d="M101.104 11.187C101.104 10.474 101.21 9.80523 101.418 9.18964C101.626 8.57404 101.932 8.05145 102.326 7.62629C102.72 7.20113 103.167 6.88226 103.664 6.66526C104.292 6.39067 105.001 6.25781 105.789 6.25781C106.702 6.25781 107.503 6.44382 108.19 6.81583C108.876 7.18785 109.421 7.76801 109.811 8.56076C110.205 9.3535 110.4 10.2348 110.4 11.2047C110.4 12.1746 110.209 13.0471 109.828 13.8265C109.447 14.606 108.894 15.195 108.168 15.5936C107.441 15.9922 106.631 16.1959 105.727 16.1959C104.842 16.1959 104.036 15.9966 103.309 15.5936C102.583 15.195 102.034 14.6148 101.662 13.8531C101.29 13.0958 101.104 12.2056 101.104 11.187ZM105.767 14.699C106.462 14.699 107.038 14.4288 107.49 13.8885C108.057 13.2242 108.34 12.334 108.34 11.2269C108.34 10.4695 108.212 9.81852 107.955 9.26493C107.698 8.71133 107.379 8.3216 106.994 8.08245C106.613 7.84773 106.197 7.72815 105.749 7.72815C105.036 7.72815 104.456 7.99831 104.005 8.53861C103.447 9.20292 103.167 10.1064 103.167 11.249C103.167 11.9842 103.283 12.6086 103.517 13.1356C103.752 13.6582 104.062 14.048 104.461 14.3093C104.855 14.5706 105.293 14.699 105.767 14.699Z" fill="#F8EBD0"/>
<path d="M121.737 16.0011V6.46606H124.824L127.109 13.7159L129.461 6.46606H132.477V16.0011H130.652V8.05598L127.951 16.0011H126.153L123.509 8.05598V16.0011H121.737Z" fill="#F8EBD0"/>
<path d="M137.45 16.0011V6.46606H139.39V16.0011H137.45Z" fill="#F8EBD0"/>
<path d="M144.231 16.0011V6.46606H146.551L150.32 13.7735V6.46606H152.052V16.0011H149.718L145.949 8.69372V16.0011H144.231Z" fill="#F8EBD0"/>
<path d="M157.127 16.0013V6.5105H162.765V8.10042H159.063V10.3591H162.451V11.9136H159.063V14.4069H162.796V15.9969H157.127V16.0013Z" fill="#F8EBD0"/>
<path d="M167.548 6.46606H170.263C171.047 6.46606 171.565 6.47935 171.817 6.50592C172.198 6.55021 172.513 6.63436 172.761 6.75393C173.013 6.87351 173.243 7.04623 173.452 7.27209C173.66 7.49353 173.819 7.7504 173.93 8.03827C174.041 8.32613 174.094 8.63172 174.094 8.95944C174.094 9.33146 174.032 9.65476 173.903 9.93377C173.775 10.2128 173.624 10.4431 173.447 10.6158C173.27 10.7929 173.084 10.9302 172.889 11.0232C172.694 11.1207 172.446 11.1915 172.15 11.2402C172.318 11.2491 172.491 11.3288 172.668 11.4838C172.84 11.6388 172.995 11.8647 173.124 12.1659L173.345 12.6752L174.714 15.9967H172.57L171.538 13.3085C171.419 12.994 171.326 12.7859 171.268 12.6796C171.171 12.4936 171.073 12.3519 170.976 12.2633C170.879 12.1747 170.772 12.1127 170.657 12.0773C170.48 12.0286 170.223 12.002 169.891 12.002C169.776 12.002 169.638 12.0108 169.483 12.0197V15.9967H167.544V6.46606H167.548ZM169.488 7.95855V10.5494H170.334C170.945 10.5494 171.397 10.4209 171.68 10.1596C171.964 9.89834 172.105 9.56618 172.105 9.15874C172.105 8.80887 171.977 8.521 171.724 8.29513C171.472 8.06927 171.096 7.95855 170.6 7.95855H169.488Z" fill="#F8EBD0"/>
<path d="M178.465 11.187C178.465 10.474 178.571 9.80523 178.779 9.18964C178.987 8.57404 179.293 8.05145 179.687 7.62629C180.081 7.20113 180.529 6.88226 181.025 6.66526C181.654 6.39067 182.362 6.25781 183.15 6.25781C184.063 6.25781 184.864 6.44382 185.551 6.81583C186.237 7.18785 186.782 7.76801 187.172 8.56076C187.566 9.3535 187.761 10.2348 187.761 11.2047C187.761 12.1746 187.57 13.0471 187.189 13.8265C186.809 14.606 186.255 15.195 185.529 15.5936C184.802 15.9922 183.992 16.1959 183.088 16.1959C182.203 16.1959 181.397 15.9966 180.67 15.5936C179.944 15.195 179.395 14.6148 179.023 13.8531C178.651 13.0958 178.465 12.2056 178.465 11.187ZM183.128 14.699C183.824 14.699 184.399 14.4288 184.851 13.8885C185.418 13.2242 185.701 12.334 185.701 11.2269C185.701 10.4695 185.573 9.81852 185.316 9.26493C185.059 8.71133 184.74 8.3216 184.355 8.08245C183.974 7.84773 183.558 7.72815 183.111 7.72815C182.398 7.72815 181.817 7.99831 181.366 8.53861C180.808 9.20292 180.529 10.1064 180.529 11.249C180.529 11.9842 180.644 12.6086 180.879 13.1356C181.113 13.6582 181.423 14.048 181.822 14.3093C182.22 14.5706 182.654 14.699 183.128 14.699Z" fill="#F8EBD0"/>
<path d="M53.7073 19.3271H57.1263V33.6896H63.7472V36.3778H53.7073V19.3271Z" fill="#F8EBD0"/>
<path d="M71.0105 19.3271H74.8724L81.5642 36.3778H77.7777L76.3117 32.4717H69.3985L67.9104 36.3778H64.3674L71.0105 19.3271ZM72.8928 22.7506H72.844L70.3772 29.7834H75.3596L72.8928 22.7506Z" fill="#F8EBD0"/>
<path d="M91.768 22.4537C90.6918 21.9886 89.4961 21.7229 88.3003 21.7229C87.1267 21.7229 85.6121 22.2366 85.6121 24.0923C85.6121 27.0507 93.0878 25.8018 93.0878 31.5193C93.0878 35.2571 90.1338 36.6743 86.6883 36.6743C84.8326 36.6743 84 36.4308 82.3171 36.0145L82.636 32.9365C83.8096 33.5698 85.1515 33.9861 86.4934 33.9861C87.7866 33.9861 89.5226 33.3262 89.5226 31.785C89.5226 28.5387 82.0469 29.8807 82.0469 24.2384C82.0469 20.4297 85.0053 19.0347 88.008 19.0347C89.4739 19.0347 90.8424 19.2295 92.0869 19.6458L91.768 22.4537Z" fill="#F8EBD0"/>
<path d="M110.953 36.134C109.709 36.4263 108.367 36.6699 107.069 36.6699C101.551 36.6699 97.7159 33.9108 97.7159 28.1446C97.7159 22.3075 101.281 19.0347 107.069 19.0347C108.194 19.0347 109.682 19.2561 110.927 19.7433L110.683 22.6264C109.39 21.8912 108.216 21.7229 106.994 21.7229C103.478 21.7229 101.277 24.4112 101.277 27.901C101.277 31.3687 103.425 33.9817 107.065 33.9817C108.407 33.9817 109.997 33.6894 110.803 33.2731L110.953 36.134Z" fill="#F8EBD0"/>
<path d="M112.703 19.3271H122.765V22.0154H116.122V26.2183H122.207V28.9021H116.122V33.6896H122.813V36.3778H112.703V19.3271Z" fill="#F8EBD0"/>
<path d="M124.767 19.3271H128.969L135.466 32.0775H135.515V19.3271H138.788V36.3778H134.612L128.088 23.6275H128.039V36.3778H124.767V19.3271Z" fill="#F8EBD0"/>
<path d="M144.74 19.3271H141.321V36.3778H144.74V19.3271Z" fill="#F8EBD0"/>
<path d="M146.737 33.5921L154.749 22.0154H147.056V19.3271H158.39V22.1128L150.303 33.6896H158.558V36.3778H146.737V33.5921Z" fill="#F8EBD0"/>
<path d="M165.923 19.3271H169.78L176.472 36.3778H172.686L171.22 32.4717H164.306L162.818 36.3778H159.275L165.923 19.3271ZM167.805 22.7506H167.756L165.29 29.7834H170.272L167.805 22.7506Z" fill="#F8EBD0"/>
<path d="M186.68 22.4537C185.604 21.9886 184.408 21.7229 183.213 21.7229C182.039 21.7229 180.524 22.2366 180.524 24.0923C180.524 27.0507 188 25.8018 188 31.5193C188 35.2571 185.046 36.6743 181.6 36.6743C179.745 36.6743 178.912 36.4308 177.229 36.0145L177.544 32.9365C178.717 33.5698 180.059 33.9861 181.406 33.9861C182.699 33.9861 184.435 33.3262 184.435 31.785C184.435 28.5387 176.959 29.8807 176.959 24.2384C176.959 20.4297 179.913 19.0347 182.92 19.0347C184.386 19.0347 185.75 19.2295 186.999 19.6458L186.68 22.4537Z" fill="#F8EBD0"/>
</svg>
